<?xml version="1.0" encoding="UTF-8" standalone="no"?>
<!-- Created with Inkscape (http://www.inkscape.org/) -->

<svg
   xmlns:dc="http://purl.org/dc/elements/1.1/"
   xmlns:cc="http://creativecommons.org/ns#"
   xmlns:rdf="http://www.w3.org/1999/02/22-rdf-syntax-ns#"
   xmlns:svg="http://www.w3.org/2000/svg"
   xmlns="http://www.w3.org/2000/svg"
   xmlns:sodipodi="http://sodipodi.sourceforge.net/DTD/sodipodi-0.dtd"
   xmlns:inkscape="http://www.inkscape.org/namespaces/inkscape"
   version="1.1"
   id="svg987"
   width="142.99023"
   height="68.440506"
   sodipodi:docname="TRADICAO.SVG"
   inkscape:version="0.92.3 (2405546, 2018-03-11)">
  <metadata
     id="metadata993">
    <rdf:RDF>
      <cc:Work
         rdf:about="">
        <dc:format>image/svg+xml</dc:format>
        <dc:type
           rdf:resource="http://purl.org/dc/dcmitype/StillImage" />
      </cc:Work>
    </rdf:RDF>
  </metadata>
  <defs
     id="defs991">
    <ellipse
       ry="15.927741"
       rx="15.686012"
       cy="85.522324"
       cx="285.34518"
       id="path830"
       style="fill:#f9f9f9;fill-opacity:1;stroke:none;stroke-width:0.30734691" />
  </defs>
  <sodipodi:namedview
     pagecolor="#ffffff"
     bordercolor="#666666"
     borderopacity="1"
     objecttolerance="10"
     gridtolerance="10"
     guidetolerance="10"
     inkscape:pageopacity="0"
     inkscape:pageshadow="2"
     inkscape:window-width="1366"
     inkscape:window-height="709"
     id="namedview989"
     showgrid="false"
     inkscape:zoom="3.2869378"
     inkscape:cx="2.8902289"
     inkscape:cy="34.220253"
     inkscape:window-x="0"
     inkscape:window-y="0"
     inkscape:window-maximized="1"
     inkscape:current-layer="g889" />
  <inkscape:clipboard
     style="font-variant-east_asian:normal;opacity:1;vector-effect:none;fill:#000000;fill-opacity:1;stroke-width:3.77952756;stroke-linecap:butt;stroke-linejoin:miter;stroke-miterlimit:4;stroke-dasharray:none;stroke-dashoffset:0;stroke-opacity:1"
     min="1416.5215,712.51445"
     max="1559.5117,780.95495" />
  <g
     id="g968"
     transform="matrix(3.7795276,0,0,3.7795276,-1416.5215,-341.56474)">
    <g
       id="g889"
       transform="translate(55.373512,27.592262)">
      <g
         id="g906">
        <path
           sodipodi:nodetypes="sccscccccccccccccccccccccccccccccccsscccccccccccccccccccccccccsccccccccccccccccccccccccccccccccccccccccccccccccsscccscscccscccccccccccccccscccccscc"
           inkscape:connector-curvature="0"
           id="path881"
           d="m 338.43081,80.270963 c 0,-0.16298 0.0174,-0.22966 0.0387,-0.14817 0.0213,0.0815 0.009,0.675508 -0.0118,0.756998 -0.0213,0.0815 -0.0269,-0.445858 -0.0269,-0.608828 z m -1.02896,-0.0494 c 0.004,-0.0986 0.0241,-0.11869 0.0512,-0.0511 0.0245,0.0611 -0.0612,0.441246 -0.0897,0.469386 -0.0281,0.0281 0.0346,-0.329006 0.0382,-0.418236 z m 2.032,0 c 0.004,-0.0986 0.0241,-0.11869 0.0512,-0.0511 0.0245,0.0611 0.0333,0.500304 0.005,0.528444 -0.0281,0.0281 -0.0599,-0.388064 -0.0563,-0.477294 z m 0.93133,0 c 0.004,-0.0986 0.0241,-0.11869 0.0512,-0.0511 0.0245,0.0611 0.0923,0.393999 0.0639,0.422139 -0.0281,0.0281 -0.11907,-0.281759 -0.11537,-0.370989 z m -4.19768,-0.87829 -1.18533,-0.046 0.71966,-0.064 c 0.73052,-0.065 6.24897,0.0617 6.33262,0.14539 0.0549,0.0549 -4.20115,0.0292 -5.86695,-0.0354 z m 8.29915,-1.79786 c -0.0215,-0.061 -0.0498,-0.30148 -0.0628,-0.53432 l -0.0237,-0.42333 -0.93134,-0.0423 -0.93133,-0.0423 -0.0255,-0.34817 c -0.0243,-0.33239 0.0192,-0.40245 0.95912,-1.54522 0.95572,-1.16194 1.16852,-1.33744 1.53615,-1.26688 0.13998,0.0269 0.15712,0.14475 0.1783,1.22668 0.0262,1.33731 0.0741,1.46206 0.48069,1.25113 0.33355,-0.17305 0.55421,-0.0864 0.55421,0.2177 0,0.28476 -0.26358,0.5071 -0.60114,0.5071 -0.30467,0 -0.39923,0.1399 -0.43061,0.63715 -0.0265,0.42029 -0.0273,0.42124 -0.34476,0.4475 -0.20583,0.017 -0.33201,-0.0129 -0.35734,-0.0847 z m -0.08,-1.69936 c 0.0103,-0.0112 0.0322,-0.36209 0.0485,-0.77984 0.0394,-1.00571 -0.0611,-1.01818 -0.76527,-0.095 -0.29755,0.3901 -0.5452,0.74196 -0.55033,0.78191 -0.0169,0.13155 1.15197,0.21727 1.26709,0.0929 z m -9.21501,1.60954 c -0.12131,-0.0922 -0.12389,-0.12636 -0.02,-0.26498 0.0922,-0.12302 0.23707,-0.16148 0.63812,-0.16942 0.4706,-0.009 0.54129,-0.0354 0.76057,-0.28083 0.25302,-0.28318 0.4641,-0.86358 0.35408,-0.9736 -0.0353,-0.0352 -0.25357,0.0331 -0.48515,0.15192 -0.3346,0.17166 -0.49719,0.20605 -0.79188,0.16749 -0.78228,-0.10235 -1.28149,-0.67369 -1.27878,-1.46354 0.003,-0.92647 0.67604,-1.49833 1.70129,-1.44594 1.22734,0.0627 1.75532,0.90729 1.58539,2.53597 -0.085,0.81446 -0.44841,1.43122 -1.01903,1.72933 -0.2839,0.14831 -1.25531,0.15746 -1.44462,0.0136 z m 1.48274,-2.17627 c 0.34033,-0.38086 0.32875,-0.91095 -0.0277,-1.26738 -0.21412,-0.21411 -0.32873,-0.26051 -0.64347,-0.26051 -0.32263,0 -0.4283,0.0453 -0.67082,0.28786 -0.32408,0.32408 -0.37362,0.6554 -0.1598,1.06886 0.29178,0.56426 1.07113,0.65308 1.50176,0.17117 z m 3.02684,2.18982 c 0,-0.0559 0.24901,-0.82701 0.55336,-1.71367 0.30436,-0.88666 0.53415,-1.66219 0.51066,-1.72341 -0.0638,-0.16625 -1.46876,-0.15438 -1.65479,0.014 -0.12232,0.11069 -0.16008,0.11013 -0.32418,-0.005 -0.24373,-0.17072 -0.23446,-0.33344 0.0343,-0.60217 l 0.21998,-0.21999 1.27787,0.0595 c 0.70281,0.0327 1.30867,0.0786 1.34634,0.10183 0.14758,0.0912 0.0344,0.56743 -0.55077,2.31833 l -0.60841,1.82034 -0.40217,0.0258 c -0.27061,0.0174 -0.40216,-0.007 -0.40216,-0.0758 z m -8.18345,-0.12303 c -0.0298,-0.0775 -0.033,-0.82285 -0.007,-1.65628 0.0257,-0.83343 0.0269,-1.59147 0.003,-1.68453 -0.0526,-0.20106 -0.21341,-0.21577 -0.47624,-0.0435 -0.17011,0.11146 -0.2128,0.11092 -0.37802,-0.005 -0.2291,-0.16048 -0.23736,-0.37765 -0.0244,-0.64064 0.14872,-0.18361 0.22125,-0.19914 0.8911,-0.19072 0.40107,0.005 0.75217,0.0321 0.78021,0.0601 0.028,0.028 0.0176,0.99547 -0.0233,2.14984 l -0.0742,2.09886 -0.31818,0.0263 c -0.23526,0.0195 -0.33228,-0.0104 -0.37227,-0.11464 z m 4.26309,-5.96938 c -1.06188,-0.0338 -1.95723,-0.0896 -1.98967,-0.12406 -0.0883,-0.0937 8.44976,0.0192 8.74636,0.11562 0.30237,0.0983 -3.77337,0.1034 -6.75669,0.008 z m 2.83197,-1.35487 0.0457,-1.199856 0.0513,1.102906 c 0.0619,0.45198 0.0586,0.64459 -0.0123,0.71544 -0.0728,0.0728 -0.0939,-0.0811 -0.0847,-0.61849 z m 1.85683,0.59267 c 0.004,-0.0675 0.0611,-0.25612 0.12802,-0.4191 l 0.23851,-0.496792 -0.15723,0.531812 c -0.0386,0.31708 -0.22362,0.65667 -0.20932,0.38408 z m 0.92489,0.009 c 0,-0.1133 0.35237,-0.69669 0.39504,-0.65402 0.0574,0.0574 -0.23712,0.73385 -0.31957,0.73385 -0.0415,0 -0.0755,-0.0359 -0.0755,-0.0798 z m 1.143,-0.0895 c 0.0843,-0.0931 0.16773,-0.16933 0.18544,-0.16933 0.0177,0 -0.009,0.0762 -0.0584,0.16933 -0.0498,0.0931 -0.13329,0.16934 -0.18544,0.16934 -0.0521,0 -0.0258,-0.0762 0.0584,-0.16934 z m -7.8347,-0.0986 c -0.0969,-0.18905 -0.0947,-0.19132 0.0516,-0.0516 0.0841,0.0804 0.12979,0.16937 0.10141,0.19775 -0.0284,0.0284 -0.0972,-0.0374 -0.15302,-0.14615 z m 1.02912,-0.0128 c -0.13731,-0.34537 -0.10995,-0.47953 0.041,-0.20108 0.0709,0.13085 0.11205,0.28325 0.0914,0.33867 -0.0207,0.0554 -0.0802,-0.007 -0.13236,-0.13759 z m 0.99044,0.15303 c -0.0296,-0.0469 -0.0764,-0.23742 -0.1039,-0.42333 l -0.0835,-0.588585 0.16476,0.535665 c 0.12274,0.26638 0.14168,0.66492 0.0226,0.47625 z m 0.83039,-0.2216 c -0.0752,-0.37623 -0.30096,-1.665841 0.0215,-0.45085 0.10953,0.11841 0.20079,0.71543 0.10935,0.71543 -0.0429,0 -0.10172,-0.11906 -0.13083,-0.26458 z m 2.0112,0.11641 c 0.0239,-0.0815 0.0692,-0.29281 0.10053,-0.46961 0.0314,-0.1768 0.22574,-0.637147 0.24824,-0.614677 0.0724,0.0724 -0.22454,1.232457 -0.30984,1.232457 -0.0453,0 -0.0628,-0.0667 -0.0389,-0.14817 z"
           style="fill:#2c543d;stroke-width:0.08466667" />
        <g
           id="text887"
           style="font-style:normal;font-weight:normal;font-size:10.58333302px;line-height:1.25;font-family:sans-serif;letter-spacing:0px;word-spacing:0px;fill:#2c543d;fill-opacity:1;stroke:none;stroke-width:0.26458332"
           transform="rotate(110.64242,313.21366,101.90367)"
           aria-label="TRADIÇÃO E CONFIANÇA DESDE">
          <path
             id="path834"
             style="font-style:normal;font-variant:normal;font-weight:normal;font-stretch:normal;font-size:4.93888903px;font-family:Uroob;-inkscape-font-specification:Uroob;fill:#2c543d;fill-opacity:1;stroke-width:0.26458332"
             d="m 288.92325,104.21005 q -0.10533,0.0261 -0.1484,-0.0874 l -0.0668,-0.26918 0.69283,-0.17184 -0.64614,-2.60514 0.42834,-0.10624 0.64614,2.60514 0.69283,-0.17183 0.0668,0.26917 q 0.0128,0.0515 -0.0142,0.093 -0.0293,0.0421 -0.0785,0.0542 z" />
          <path
             id="path836"
             style="font-style:normal;font-variant:normal;font-weight:normal;font-stretch:normal;font-size:4.93888903px;font-family:Uroob;-inkscape-font-specification:Uroob;fill:#2c543d;fill-opacity:1;stroke-width:0.26458332"
             d="m 285.94744,101.4647 0.45083,-0.0479 0.77674,1.26095 0.34292,-0.0365 -0.14125,-1.32852 0.43644,-0.0464 0.32688,3.0743 -1.18463,0.12596 q -0.23501,0.025 -0.4168,-0.11089 -0.18683,-0.13777 -0.21207,-0.37518 L 286.25,103.2611 q -0.0365,-0.34292 0.24514,-0.47714 0.0876,-0.0433 0.19787,-0.055 z m 0.74757,1.85337 0.0571,0.53716 q 0.0171,0.16067 0.14943,0.21935 0.0407,0.0175 0.091,0.0122 l 0.67146,-0.0714 -0.10607,-0.99759 -0.7434,0.079 q -0.1247,0.0133 -0.12266,0.14643 -9.8e-4,0.0365 0.003,0.0749 z" />
          <path
             id="path838"
             style="font-style:normal;font-variant:normal;font-weight:normal;font-stretch:normal;font-size:4.93888903px;font-family:Uroob;-inkscape-font-specification:Uroob;fill:#2c543d;fill-opacity:1;stroke-width:0.26458332"
             d="m 283.92014,101.41756 0.43634,0.0117 -0.0351,1.31142 0.91606,0.0245 0.0351,-1.31142 0.43634,0.0117 -0.0691,2.57945 q -0.006,0.21937 -0.19785,0.36139 -0.1822,0.13745 -0.40399,0.13151 l -0.62678,-0.0168 q -0.21696,-0.006 -0.38673,-0.15269 -0.17914,-0.15678 -0.1734,-0.37133 z m 0.39128,1.69435 -0.0219,0.81723 q -0.002,0.0868 0.0467,0.14841 0.0466,0.0616 0.1382,0.064 l 0.54482,0.0146 q 0.094,0.003 0.13903,-0.0566 0.045,-0.0591 0.0473,-0.14589 l 0.0219,-0.81723 z" />
          <path
             id="path840"
             style="font-style:normal;font-variant:normal;font-weight:normal;font-stretch:normal;font-size:4.93888903px;font-family:Uroob;-inkscape-font-specification:Uroob;fill:#2c543d;fill-opacity:1;stroke-width:0.26458332"
             d="m 281.85521,101.58088 q 0.0335,-0.212 0.18284,-0.32268 0.14971,-0.11306 0.36409,-0.0792 l 1.27199,0.20102 -0.4811,3.0442 -1.17671,-0.18596 q -0.23344,-0.0369 -0.37371,-0.21532 -0.14465,-0.18156 -0.10738,-0.41738 z m 0.41496,0.17057 -0.29138,1.84367 q -0.0252,0.15959 0.0874,0.25063 0.0347,0.0275 0.0847,0.0354 l 0.66696,0.10541 0.36365,-2.30102 -0.73842,-0.1167 q -0.12386,-0.0196 -0.15648,0.10956 -0.0104,0.035 -0.0164,0.0731 z" />
          <path
             id="path842"
             style="font-style:normal;font-variant:normal;font-weight:normal;font-stretch:normal;font-size:4.93888903px;font-family:Uroob;-inkscape-font-specification:Uroob;fill:#2c543d;fill-opacity:1;stroke-width:0.26458332"
             d="m 281.2706,100.9112 0.43057,0.10723 -0.71565,2.87363 q -0.0117,0.0468 -0.0555,0.0732 -0.0438,0.0264 -0.0907,0.0147 l -0.19656,-0.049 q -0.0468,-0.0117 -0.0732,-0.0555 -0.0264,-0.0438 -0.0147,-0.0906 z" />
          <path
             id="path844"
             style="font-style:normal;font-variant:normal;font-weight:normal;font-stretch:normal;font-size:4.93888903px;font-family:Uroob;-inkscape-font-specification:Uroob;fill:#2c543d;fill-opacity:1;stroke-width:0.26458332"
             d="m 280.1288,100.41258 q -0.35643,-0.19519 -0.28339,-0.40979 0.0466,-0.136975 0.19326,-0.171129 0.14742,-0.03644 0.257,8.63e-4 0.19177,0.06527 0.2895,0.167319 0.0977,0.102047 0.0542,0.229887 -0.009,0.0274 -0.0293,0.0562 l -0.1398,-0.0832 q 0.0418,-0.0928 -0.12717,-0.15028 -0.0593,-0.0202 -0.11827,0.0107 -0.0589,0.0309 -0.0783,0.088 -0.0187,0.0548 0.0169,0.10001 0.034,0.0422 0.0902,0.0791 0.0562,0.037 0.11779,0.0656 0.0593,0.0278 0.0912,0.0463 l -0.21143,0.14966 0.22601,0.0769 q 0.21232,0.0723 0.33997,0.26602 0.1246,0.19525 0.0547,0.40072 l -0.66905,1.96561 q -0.0707,0.20775 -0.29084,0.28567 -0.22012,0.0779 -0.43015,0.006 l -0.52508,-0.17872 q -0.20318,-0.0692 -0.30189,-0.25815 -0.10099,-0.18977 -0.0318,-0.39295 l 0.0715,-0.21003 0.41322,0.14065 -0.0373,0.10958 q -0.0754,0.22144 0.10498,0.28283 l 0.40179,0.13676 q 0.089,0.0303 0.14956,-0.0128 0.0605,-0.0431 0.0885,-0.12527 l 0.61776,-1.81494 q 0.028,-0.0822 0.006,-0.15325 -0.0217,-0.0711 -0.1107,-0.10136 l -0.4018,-0.13677 q -0.17579,-0.0598 -0.24951,0.1418 -0.0186,0.0548 -0.0358,0.10501 l -0.41321,-0.14064 0.0637,-0.1872 q 0.0816,-0.23971 0.28637,-0.30248 0.20478,-0.0628 0.44905,0.0204 z" />
          <path
             id="path846"
             style="font-style:normal;font-variant:normal;font-weight:normal;font-stretch:normal;font-size:4.93888903px;font-family:Uroob;-inkscape-font-specification:Uroob;fill:#2c543d;fill-opacity:1;stroke-width:0.26458332"
             d="m 276.64074,102.92127 q -0.18195,-0.089 -0.34294,0.004 l -0.0399,-0.13232 q 0.22531,-0.26293 0.57189,-0.0933 0.0671,0.0329 0.11435,0.12844 0.0472,0.0956 0.08,0.14384 0.0306,0.0472 0.0999,0.0811 0.0672,0.0329 0.16739,0.0255 0.10024,-0.007 0.1796,-0.0598 l 0.0452,0.1107 q -0.0733,0.12789 -0.22703,0.18961 -0.16232,0.0629 -0.29012,3.2e-4 l -0.10397,-0.0509 q -0.065,-0.0318 -0.10573,-0.1296 -0.0418,-0.0956 -0.0692,-0.14393 -0.0274,-0.0483 -0.0794,-0.0737 z m 0.99477,-3.48675 0.39206,0.191858 -0.57663,1.178372 0.82312,0.40279 0.57664,-1.17837 0.39207,0.19186 -1.13419,2.31775 q -0.0965,0.19712 -0.33008,0.24657 -0.22283,0.0494 -0.42211,-0.0482 l -0.5632,-0.27559 q -0.19495,-0.0954 -0.28837,-0.29952 -0.0978,-0.21703 -0.003,-0.40981 z m -0.34781,1.70381 -0.35934,0.73431 q -0.0382,0.078 -0.0192,0.1544 0.0168,0.0754 0.0991,0.11563 l 0.48954,0.23956 q 0.0845,0.0413 0.14997,0.006 0.0655,-0.0351 0.10365,-0.11305 l 0.35934,-0.73431 z" />
          <path
             id="path848"
             style="font-style:normal;font-variant:normal;font-weight:normal;font-stretch:normal;font-size:4.93888903px;font-family:Uroob;-inkscape-font-specification:Uroob;fill:#2c543d;fill-opacity:1;stroke-width:0.26458332"
             d="m 275.65135,98.845213 q 0.13689,-0.207261 0.39152,-0.255839 0.2446,-0.04653 0.45991,0.09569 l 0.40245,0.265821 q 0.21531,0.142214 0.27657,0.390766 0.0633,0.249881 -0.0776,0.463179 l -1.0367,1.569554 q -0.14222,0.21531 -0.39821,0.2572 -0.25132,0.0392 -0.46663,-0.10301 l -0.40245,-0.26582 q -0.21129,-0.13956 -0.26719,-0.38746 -0.0579,-0.24924 0.0816,-0.46052 z m 0.32035,0.306972 -0.94898,1.436745 q -0.10633,0.16098 -0.0402,0.30584 0.0216,0.0461 0.0719,0.0793 l 0.33403,0.22064 q 0.0885,0.0585 0.20071,0.0112 0.0928,-0.0399 0.15792,-0.13846 l 0.94898,-1.436748 q 0.105,-0.158967 0.0449,-0.299838 -0.0203,-0.04807 -0.0686,-0.07997 l -0.33404,-0.220631 q -0.0926,-0.06114 -0.20541,-0.01718 -0.0975,0.04256 -0.16127,0.139143 z" />
          <path
             id="path850"
             style="font-style:normal;font-variant:normal;font-weight:normal;font-stretch:normal;font-size:4.93888903px;font-family:Uroob;-inkscape-font-specification:Uroob;fill:#2c543d;fill-opacity:1;stroke-width:0.26458332"
             d="m 273.60761,96.129846 0.73142,0.741862 q 0.15746,0.159707 0.18146,0.383268 0.0273,0.237227 -0.12725,0.389607 l -1.47857,1.45777 q -0.15627,0.154073 -0.39309,0.123406 -0.22661,-0.02719 -0.38238,-0.185174 l -0.73142,-0.741862 0.27133,-0.267512 0.71111,0.721255 q 0.066,0.06697 0.13943,0.05556 0.0734,-0.01142 0.13523,-0.07237 l 0.53064,-0.523172 -0.76867,-0.779642 0.26446,-0.260739 0.76867,0.779642 0.57014,-0.562113 q 0.0618,-0.06095 0.0743,-0.134191 0.0125,-0.07324 -0.0536,-0.140213 l -0.71111,-0.721254 z" />
          <path
             id="path852"
             style="font-style:normal;font-variant:normal;font-weight:normal;font-stretch:normal;font-size:4.93888903px;font-family:Uroob;-inkscape-font-specification:Uroob;fill:#2c543d;fill-opacity:1;stroke-width:0.26458332"
             d="m 269.86781,95.166816 q -0.19641,0.127064 -0.0929,0.287022 l 0.23055,0.35636 q 0.0511,0.07897 0.12528,0.08266 0.0742,0.0037 0.14709,-0.04346 l 1.6097,-1.041404 q 0.0729,-0.04716 0.0999,-0.116352 0.027,-0.06919 -0.024,-0.14816 l -0.23054,-0.356361 q -0.10087,-0.155907 -0.2837,-0.04337 -0.0486,0.03144 -0.0931,0.06026 l -0.2371,-0.366484 0.16603,-0.107415 q 0.18223,-0.117895 0.38886,-0.06488 0.20461,0.05432 0.31988,0.232504 l 0.30129,0.465698 q 0.12182,0.188304 0.10001,0.412089 -0.0213,0.237839 -0.20356,0.355733 l -1.74333,1.12786 q -0.18426,0.119205 -0.40994,0.04118 -0.2164,-0.07255 -0.33692,-0.258826 l -0.30128,-0.465698 q -0.11659,-0.180205 -0.0769,-0.389697 0.0384,-0.211517 0.21857,-0.328101 l 0.18628,-0.120515 0.2371,0.366484 z" />
          <path
             id="path854"
             style="font-style:normal;font-variant:normal;font-weight:normal;font-stretch:normal;font-size:4.93888903px;font-family:Uroob;-inkscape-font-specification:Uroob;fill:#2c543d;fill-opacity:1;stroke-width:0.26458332"
             d="m 270.3001,91.944908 q 0.22339,-0.108609 0.46724,-0.02069 0.23419,0.08457 0.34701,0.316636 l 0.21089,0.433764 q 0.11283,0.232063 0.0389,0.477152 -0.0729,0.247258 -0.30275,0.35903 l -1.69167,0.822474 q -0.23207,0.112827 -0.47369,0.01847 -0.23624,-0.0943 -0.34906,-0.326365 l -0.2109,-0.433764 q -0.11071,-0.227726 -0.0325,-0.469532 0.0771,-0.243974 0.30486,-0.354692 z m 0.11928,0.427353 -1.54853,0.752881 q -0.17351,0.08436 -0.19037,0.242716 -0.005,0.05064 0.0215,0.104858 l 0.17504,0.360024 q 0.0464,0.09543 0.16701,0.111868 0.10016,0.01298 0.20643,-0.03869 l 1.54854,-0.752881 q 0.17133,-0.0833 0.19136,-0.235155 0.007,-0.05169 -0.0183,-0.103744 l -0.17504,-0.360024 q -0.0485,-0.09977 -0.16801,-0.119429 -0.10555,-0.01304 -0.20966,0.03758 z" />
          <path
             id="path856"
             style="font-style:normal;font-variant:normal;font-weight:normal;font-stretch:normal;font-size:4.93888903px;font-family:Uroob;-inkscape-font-specification:Uroob;fill:#2c543d;fill-opacity:1;stroke-width:0.26458332"
             d="m 270.05828,89.723725 q 0.0457,-0.01539 0.0915,0.0074 0.0435,0.02351 0.0589,0.06922 l 0.0693,0.205695 q -0.20908,0.210348 -0.6773,0.724232 -0.46822,0.513884 -0.8559,0.926861 l 1.8764,-0.631758 0.14158,0.420532 -2.81116,0.946484 q -0.0457,0.01539 -0.0915,-0.0074 -0.0458,-0.02274 -0.0612,-0.06845 l -0.08,-0.237693 q 0.002,-7.69e-4 0.0646,-0.06502 0.0623,-0.06425 0.1665,-0.170564 0.10416,-0.106316 0.23644,-0.242459 0.13151,-0.138429 0.27369,-0.28299 0.1414,-0.146847 0.28128,-0.290639 0.13761,-0.143023 0.25468,-0.263868 0.11479,-0.120076 0.19614,-0.203445 0.0806,-0.08566 0.10719,-0.112427 l -1.91297,0.644071 -0.14158,-0.420533 z" />
          <path
             id="path858"
             style="font-style:normal;font-variant:normal;font-weight:normal;font-stretch:normal;font-size:4.93888903px;font-family:Uroob;-inkscape-font-specification:Uroob;fill:#2c543d;fill-opacity:1;stroke-width:0.26458332"
             d="m 267.14527,88.394811 0.20215,0.992482 q 0.0188,0.09216 0.0865,0.122661 0.0677,0.0305 0.15281,0.01318 l 0.73018,-0.148721 -0.21851,-1.072825 0.36391,-0.07412 0.21851,1.072825 1.35403,-0.275783 0.0871,0.427712 -2.5261,0.514506 q -0.21504,0.0438 -0.39672,-0.111161 -0.17504,-0.146469 -0.21932,-0.36387 l -0.20792,-1.020838 z" />
          <path
             id="path860"
             style="font-style:normal;font-variant:normal;font-weight:normal;font-stretch:normal;font-size:4.93888903px;font-family:Uroob;-inkscape-font-specification:Uroob;fill:#2c543d;fill-opacity:1;stroke-width:0.26458332"
             d="m 269.7386,87.170131 0.0538,0.440454 -2.93956,0.359084 q -0.0479,0.0058 -0.0882,-0.02567 -0.0403,-0.03152 -0.0461,-0.0794 l -0.0246,-0.201077 q -0.006,-0.04787 0.0257,-0.08817 0.0315,-0.04029 0.0794,-0.04614 z" />
          <path
             id="path862"
             style="font-style:normal;font-variant:normal;font-weight:normal;font-stretch:normal;font-size:4.93888903px;font-family:Uroob;-inkscape-font-specification:Uroob;fill:#2c543d;fill-opacity:1;stroke-width:0.26458332"
             d="m 269.63274,85.142699 0.0166,0.436177 -1.31094,0.04997 0.0349,0.91573 1.31094,-0.04997 0.0166,0.436177 -2.57851,0.09828 q -0.21929,0.0084 -0.37345,-0.174004 -0.14898,-0.172907 -0.15743,-0.394611 l -0.0239,-0.626552 q -0.008,-0.216884 0.1273,-0.39581 0.14484,-0.188933 0.35931,-0.197107 z m -1.66542,0.50029 -0.81693,0.03114 q -0.0867,0.0033 -0.14507,0.05621 -0.0584,0.05049 -0.0549,0.142065 l 0.0208,0.544619 q 0.004,0.09398 0.0655,0.135063 0.0619,0.04108 0.14865,0.03777 l 0.81693,-0.03114 z" />
          <path
             id="path864"
             style="font-style:normal;font-variant:normal;font-weight:normal;font-stretch:normal;font-size:4.93888903px;font-family:Uroob;-inkscape-font-specification:Uroob;fill:#2c543d;fill-opacity:1;stroke-width:0.26458332"
             d="m 269.70104,83.034572 q 0.048,0.0042 0.0809,0.04345 0.0304,0.039 0.0262,0.08704 l -0.0191,0.216202 q -0.2759,0.108817 -0.91092,0.391739 -0.63503,0.282923 -1.15581,0.505714 l 1.97224,0.173946 -0.039,0.442013 -2.95475,-0.260601 q -0.048,-0.0042 -0.0809,-0.04345 -0.0329,-0.03921 -0.0286,-0.08726 l 0.022,-0.249833 q 0.002,2.12e-4 0.0853,-0.03364 0.0829,-0.03385 0.22093,-0.08946 0.13806,-0.05561 0.31384,-0.127259 0.176,-0.07405 0.36422,-0.149447 0.18843,-0.0778 0.37425,-0.153404 0.18341,-0.07582 0.33913,-0.139555 0.15332,-0.06395 0.26127,-0.107686 0.10817,-0.04614 0.14329,-0.05999 l -2.01068,-0.177336 0.039,-0.442012 z" />
          <path
             id="path866"
             style="font-style:normal;font-variant:normal;font-weight:normal;font-stretch:normal;font-size:4.93888903px;font-family:Uroob;-inkscape-font-specification:Uroob;fill:#2c543d;fill-opacity:1;stroke-width:0.26458332"
             d="m 270.20677,81.860654 q 0.15248,-0.376692 0.3741,-0.329066 0.14147,0.0304 0.19242,0.17208 0.0533,0.142187 0.029,0.255358 -0.0426,0.198051 -0.13256,0.306974 -0.09,0.108922 -0.22204,0.08055 -0.0283,-0.0061 -0.0593,-0.0226 l 0.0665,-0.148518 q 0.097,0.03071 0.13449,-0.143762 0.0132,-0.0613 -0.0243,-0.116231 -0.0375,-0.05493 -0.0965,-0.0676 -0.0566,-0.01216 -0.0974,0.02841 -0.0379,0.03872 -0.0681,0.09883 -0.0302,0.06011 -0.0514,0.124609 -0.0208,0.06214 -0.0354,0.09598 l -0.1732,-0.192617 -0.0502,0.233416 q -0.0471,0.219271 -0.22473,0.368566 -0.17947,0.146431 -0.39166,0.100832 l -2.03002,-0.436235 q -0.21456,-0.04611 -0.31751,-0.255695 -0.10296,-0.209588 -0.0564,-0.4265 l 0.11653,-0.542281 q 0.0451,-0.209839 0.22134,-0.329828 0.17676,-0.122347 0.3866,-0.07725 l 0.21691,0.04661 -0.0917,0.426751 -0.11318,-0.02432 q -0.2287,-0.04915 -0.26872,0.137116 l -0.0892,0.414963 q -0.0198,0.09195 0.0301,0.147057 0.0498,0.05511 0.1347,0.07335 l 1.87441,0.402795 q 0.0849,0.01824 0.15294,-0.01153 0.0681,-0.02977 0.0878,-0.121725 l 0.0892,-0.414962 q 0.039,-0.181546 -0.16981,-0.231355 -0.0566,-0.01216 -0.10846,-0.02331 l 0.0917,-0.426751 0.19333,0.04155 q 0.24757,0.0532 0.33369,0.249303 0.0861,0.196104 0.0319,0.448382 z" />
          <path
             id="path868"
             style="font-style:normal;font-variant:normal;font-weight:normal;font-stretch:normal;font-size:4.93888903px;font-family:Uroob;-inkscape-font-specification:Uroob;fill:#2c543d;fill-opacity:1;stroke-width:0.26458332"
             d="m 270.8804,79.267967 -0.14337,0.412278 -1.23911,-0.430887 -0.30098,0.865556 1.23911,0.430887 -0.14337,0.412278 -2.43722,-0.847517 q -0.20728,-0.07208 -0.28444,-0.298062 -0.0758,-0.215288 -0.003,-0.424843 l 0.20594,-0.592223 q 0.0713,-0.205 0.26271,-0.322268 0.20369,-0.12321 0.40642,-0.05272 z m -1.73326,-0.140588 -0.77216,-0.268513 q -0.082,-0.02851 -0.15558,-4.83e-4 -0.0728,0.02575 -0.10288,0.11231 l -0.17901,0.514778 q -0.0309,0.08883 0.0118,0.149635 0.0427,0.0608 0.12469,0.08932 l 0.77217,0.268513 z" />
          <path
             id="path870"
             style="font-style:normal;font-variant:normal;font-weight:normal;font-stretch:normal;font-size:4.93888903px;font-family:Uroob;-inkscape-font-specification:Uroob;fill:#2c543d;fill-opacity:1;stroke-width:0.26458332"
             d="m 272.10027,76.055534 q 0.18331,0.111634 0.22886,0.291845 0.0476,0.181465 -0.0653,0.366838 l -0.6698,1.099878 -2.63229,-1.603013 0.61963,-1.01749 q 0.12292,-0.201851 0.34129,-0.263694 0.22294,-0.06471 0.42685,0.05947 z m -0.3156,0.31887 -1.59421,-0.970839 q -0.138,-0.08404 -0.26501,-0.01456 -0.0386,0.02167 -0.065,0.06492 l -0.3512,0.576715 1.98966,1.211667 0.38884,-0.638506 q 0.0652,-0.107105 -0.0418,-0.18639 -0.0284,-0.02293 -0.0613,-0.043 z" />
          <path
             id="path872"
             style="font-style:normal;font-variant:normal;font-weight:normal;font-stretch:normal;font-size:4.93888903px;font-family:Uroob;-inkscape-font-specification:Uroob;fill:#2c543d;fill-opacity:1;stroke-width:0.26458332"
             d="m 273.67595,74.837562 -0.64563,0.817622 q -0.13899,0.176016 -0.35786,0.227497 -0.23203,0.05646 -0.40236,-0.07804 l -1.62957,-1.286773 q -0.17223,-0.136 -0.17111,-0.374791 -0.001,-0.228232 0.13642,-0.402355 l 0.64563,-0.817622 0.29904,0.236133 -0.6277,0.79491 q -0.0583,0.07381 -0.0379,0.145243 0.0204,0.07143 0.0886,0.125233 l 0.58483,0.461803 0.67851,-0.85926 0.29146,0.230154 -0.6785,0.85926 0.62835,0.496177 q 0.0681,0.0538 0.14236,0.0571 0.0742,0.0033 0.1325,-0.07052 l 0.62769,-0.79491 z" />
          <path
             id="path874"
             style="font-style:normal;font-variant:normal;font-weight:normal;font-stretch:normal;font-size:4.93888903px;font-family:Uroob;-inkscape-font-specification:Uroob;fill:#2c543d;fill-opacity:1;stroke-width:0.26458332"
             d="m 272.39987,72.2958 q -0.1302,0.12899 0.004,0.264333 l 0.41752,0.421447 q 0.12729,0.12849 0.25749,-4.99e-4 l 0.454,-0.449767 q 0.15419,-0.152751 0.36045,-0.136437 0.20115,0.01458 0.3522,0.167058 l 0.47523,0.479697 q 0.15614,0.157614 0.16369,0.367396 0.009,0.218315 -0.14669,0.372764 l -0.5311,0.526141 q -0.16789,0.166329 -0.37416,0.153427 -0.19775,-0.01457 -0.36407,-0.182462 l 0.29467,-0.291924 q 0.056,0.06336 0.11398,0.05681 0.058,-0.01 0.11285,-0.06427 l 0.4026,-0.39885 q 0.1302,-0.128989 0.003,-0.257479 l -0.41752,-0.421448 q -0.13238,-0.13363 -0.26258,-0.0046 l -0.43687,0.432794 q -0.1559,0.154448 -0.37412,0.143195 -0.2114,-0.01122 -0.36755,-0.168836 l -0.47522,-0.479696 q -0.15275,-0.154188 -0.16547,-0.352057 -0.0109,-0.213208 0.13983,-0.362565 l 0.53109,-0.526142 q 0.15761,-0.156145 0.35876,-0.141561 0.18923,0.01282 0.35046,0.175577 l -0.29467,0.291924 q -0.0916,-0.09933 -0.21325,0.02117 z" />
          <path
             id="path876"
             style="font-style:normal;font-variant:normal;font-weight:normal;font-stretch:normal;font-size:4.93888903px;font-family:Uroob;-inkscape-font-specification:Uroob;fill:#2c543d;fill-opacity:1;stroke-width:0.26458332"
             d="m 276.39935,71.814137 q 0.13057,0.170339 0.10792,0.354831 -0.0212,0.186407 -0.19345,0.318451 l -1.02203,0.783466 -1.87504,-2.445987 0.94548,-0.724779 q 0.18756,-0.143783 0.41352,-0.122526 0.23126,0.02024 0.37651,0.209714 z m -0.40951,0.183259 -1.13559,-1.481373 q -0.0983,-0.128233 -0.24184,-0.109358 -0.0438,0.0062 -0.084,0.03706 l -0.53589,0.410806 1.41728,1.848845 0.59331,-0.454821 q 0.0995,-0.07629 0.0284,-0.188894 -0.0182,-0.03164 -0.0417,-0.06227 z" />
          <path
             id="path878"
             style="font-style:normal;font-variant:normal;font-weight:normal;font-stretch:normal;font-size:4.93888903px;font-family:Uroob;-inkscape-font-specification:Uroob;fill:#2c543d;fill-opacity:1;stroke-width:0.26458332"
             d="m 278.31071,71.251183 -0.89862,0.527088 q -0.19346,0.11347 -0.41607,0.08189 -0.23668,-0.03172 -0.34649,-0.218933 l -1.05051,-1.791001 q -0.11103,-0.189293 -0.0232,-0.41135 0.0819,-0.213017 0.27332,-0.325267 l 0.89862,-0.527087 0.19277,0.328662 -0.87365,0.512446 q -0.0811,0.04758 -0.0881,0.12155 -0.007,0.07397 0.037,0.14885 l 0.37702,0.642764 0.94438,-0.55393 0.1879,0.320342 -0.94438,0.55393 0.40507,0.690607 q 0.0439,0.07489 0.11187,0.104926 0.0679,0.03004 0.14907,-0.01754 l 0.87366,-0.512447 z" />
        </g>
      </g>
    </g>
  </g>
</svg>
